<svg xmlns="http://www.w3.org/2000/svg" viewBox="0 0 390 844" width="390" height="844" role="img" aria-label="Hissati plan on a phone preview">
  <!-- PLACEHOLDER — Wave 2 swaps in a real Playwright mobile screenshot. -->
  <defs>
    <linearGradient id="psky" x1="0" y1="0" x2="0" y2="1">
      <stop offset="0" stop-color="#0b1326"/>
      <stop offset="1" stop-color="#1b2747"/>
    </linearGradient>
  </defs>
  <rect width="390" height="844" fill="#fbf8f1"/>

  <!-- header -->
  <rect x="0" y="0" width="390" height="92" fill="#f6f1e7"/>
  <rect x="0" y="91" width="390" height="1" fill="#e3d8c4"/>
  <text x="24" y="58" font-family="Georgia, serif" font-size="24" font-weight="700" fill="#14584a">Hissati</text>
  <text x="120" y="58" font-family="system-ui, sans-serif" font-size="18" fill="#b9711a">حصتي</text>

  <!-- AED within reach -->
  <text x="24" y="148" font-family="ui-monospace, monospace" font-size="12" letter-spacing="1.5" fill="#8a7d6c">AED WITHIN REACH</text>
  <text x="22" y="200" font-family="ui-monospace, monospace" font-size="40" font-weight="600" fill="#b9711a">AED</text>
  <text x="22" y="248" font-family="ui-monospace, monospace" font-size="44" font-weight="600" fill="#b9711a">2,000,000</text>
  <rect x="24" y="270" width="120" height="24" rx="12" fill="#efd9cf"/>
  <text x="36" y="287" font-family="ui-monospace, monospace" font-size="11" fill="#9c4a2f">✓ verified · cited</text>

  <!-- small stats -->
  <g font-family="ui-monospace, monospace">
    <text x="24" y="340" font-size="11" letter-spacing="1.5" fill="#8a7d6c">ELIGIBLE</text>
    <text x="22" y="372" font-size="26" font-weight="600" fill="#14584a">3 / 8</text>
    <text x="210" y="340" font-size="11" letter-spacing="1.5" fill="#8a7d6c">STEPS</text>
    <text x="208" y="372" font-size="26" font-weight="600" fill="#21180f">2 / 5</text>
  </g>

  <!-- funding sky -->
  <rect x="24" y="404" width="342" height="150" rx="16" fill="url(#psky)"/>
  <text x="44" y="436" font-family="ui-monospace, monospace" font-size="10" letter-spacing="2" fill="#8aa0c8">FUNDING SKY</text>
  <g fill="#f7e6c8">
    <circle cx="80" cy="478" r="5"/><circle cx="170" cy="462" r="3"/><circle cx="250" cy="500" r="5.5"/>
    <circle cx="320" cy="470" r="3.5"/><circle cx="130" cy="516" r="3"/><circle cx="290" cy="520" r="3"/>
  </g>

  <!-- program card -->
  <rect x="24" y="578" width="342" height="142" rx="16" fill="#f6f1e7" stroke="#bcd7cc"/>
  <text x="44" y="616" font-family="Georgia, serif" font-size="17" font-weight="700" fill="#21180f">Khalifa Fund — SME</text>
  <rect x="44" y="630" width="104" height="24" rx="12" fill="#d6ecdf"/>
  <text x="56" y="647" font-family="system-ui, sans-serif" font-size="12" fill="#1f7a52">Eligible now</text>
  <text x="44" y="694" font-family="ui-monospace, monospace" font-size="22" fill="#b9711a">AED 2,000,000</text>

  <!-- CTA -->
  <rect x="24" y="744" width="342" height="56" rx="28" fill="#14584a"/>
  <text x="195" y="779" text-anchor="middle" font-family="system-ui, sans-serif" font-size="17" font-weight="700" fill="#fbf8f1">Start — 6 questions</text>
</svg>
